<svg width="120" height="29" viewBox="0 0 120 29" fill="none" xmlns="http://www.w3.org/2000/svg">
<path d="M0.013855 0.508728H4.19792V9.81941H13.0224V0.508728H17.2118V23.3636H13.0224V13.8574H4.19792V23.3636H0.013855V0.508728ZM30.4669 15.9194C30.4669 17.8326 28.9107 19.3895 27.001 19.3895C25.0906 19.3895 23.5353 17.8326 23.5353 15.9194V6.07959H19.5673V15.9194C19.5673 20.0245 22.9022 23.3636 27.001 23.3636C31.0988 23.3636 34.4335 20.0245 34.4335 15.9194V6.07959H30.4669V15.9194ZM45.5105 6.19486C43.5422 6.19486 42.1683 6.76694 40.8415 8.07145V0.508728H36.8607V14.5245C36.8607 19.7707 40.6477 23.3636 44.9023 23.3636C49.6322 23.3636 53.7764 19.7066 53.7764 14.7795C53.7764 9.91471 49.9549 6.19486 45.5105 6.19486ZM45.6094 19.6749C42.912 19.6749 40.8492 17.4185 40.8492 14.7795C40.8492 12.1399 42.912 9.88279 45.6094 9.88279C47.895 9.88279 49.9589 12.1399 49.9589 14.7795C49.9589 17.4185 47.895 19.6749 45.6094 19.6749ZM60.4624 7.19935C60.4624 5.19505 61.7958 4.55958 63.2555 4.55958C64.4306 4.55958 65.9857 5.44976 67.0006 6.53102L69.6028 3.47903C68.3023 1.7306 65.6682 0.522109 63.5096 0.522109C59.1921 0.522109 56.0813 3.03394 56.0813 7.19935C56.0813 14.925 65.5728 12.4761 65.5728 16.8011C65.5728 18.135 64.2717 19.3125 62.7807 19.3125C60.4308 19.3125 59.6686 18.1678 58.5898 16.9593L55.7007 19.9475C57.5428 22.2051 59.8275 23.3502 62.5578 23.3502C66.6523 23.3502 69.9537 20.8067 69.9537 16.8319C69.9537 8.24798 60.4624 10.919 60.4624 7.19935ZM80.4335 5.9709C76.1794 5.9709 72.3919 9.56165 72.3919 14.809V28.861H76.3725V21.2623C77.6996 22.5659 79.0728 23.1389 81.0417 23.1389C85.486 23.1389 89.3079 19.4195 89.3079 14.5548C89.3079 9.62691 85.1625 5.9709 80.4335 5.9709ZM81.1409 19.4515C78.4437 19.4515 76.3807 17.192 76.3807 14.5548C76.3807 11.9153 78.4437 9.65813 81.1409 9.65813C83.426 9.65813 85.4902 11.9153 85.4902 14.5548C85.4902 17.192 83.426 19.4515 81.1409 19.4515ZM118.61 19.6749C116.262 19.6749 115.595 18.658 115.595 17.0995V10.2006H119.245V6.7038H115.595V2.09329L111.565 3.9051V17.958C111.565 21.5511 114.04 23.3636 117.435 23.3636C117.943 23.3636 118.642 23.3307 119.023 23.2366L120.008 19.6125C119.563 19.6432 119.055 19.6749 118.61 19.6749Z" fill="#898FEB"/>
</svg>
